<svg width="1822" height="1025" viewBox="0 0 1822 1025" fill="none" xmlns="http://www.w3.org/2000/svg">
<g clip-path="url(#clip0_2_6)">
<rect width="1822" height="1025" fill="#F6F6F6"/>
<g clip-path="url(#clip1_2_6)" filter="url(#filter0_i_2_6)">
<path d="M-819 99.7288C-798.926 98.936 -781.265 97.6147 -763.604 97.6147C-365.517 97.6147 32.5703 98.5837 430.547 96.4695C488.028 96.4695 502.398 115.233 506.238 154.61C519.291 285.779 449.525 389.551 304.616 445.313C276.644 455.972 268.197 468.04 268.526 491.649C269.952 586.788 268.526 682.015 268.526 781.559H177.808V468.833C113.855 459.495 54.1803 453.769 -3.41016 441.877C-142.505 413.071 -260.757 352.2 -367.82 277.586C-459.636 213.543 -559.679 167.912 -684.403 159.455C-758.119 154.522 -785.104 138.489 -819 99.7288Z" fill="white" fill-opacity="0.26"/>
<path d="M309.004 566.351C292.111 485.218 292.879 484.425 371.75 446.017C493.403 386.732 549.896 298.287 549.458 185.266C549.458 122.104 515.562 72.5964 443.491 47.8426C364.839 21.4151 281.799 2.38727 202.16 -22.6308C122.521 -47.6488 34.764 -67.9099 -39.1711 -103.851C-181.557 -173.179 -244.083 -280.387 -218.305 -414.198C-188.029 -571.706 59.9941 -660.855 225.854 -573.644C263.261 -553.912 292.879 -520.261 315.695 -488.195C338.512 -456.13 340.267 -416.313 389.082 -395.083C402.575 -389.18 408.608 -359.229 404.33 -342.668C392.991 -299.758 377.551 -257.613 358.148 -216.609C347.178 -191.943 318.438 -187.715 297.925 -209.033C264.469 -243.585 234.221 -280.065 207.426 -318.178C189.216 -344.606 192.946 -373.852 226.732 -392.968C265.016 -414.727 258.434 -439.745 238.908 -465.732C195.798 -523.432 129.212 -545.543 48.3663 -540.962C-24.2524 -536.91 -85.7919 -494.626 -108.17 -433.226C-139.653 -347.249 -111.241 -273.252 -30.0663 -213.614C42.004 -160.23 129.87 -133.098 224.428 -117.329C297.705 -105.085 371.75 -94.7778 443.82 -78.0404C738.025 -9.41693 823.917 212.662 634.253 408.666C561.415 483.721 440.749 542.742 309.004 566.351Z" fill="white" fill-opacity="0.26"/>
<path d="M145.557 484.337C145.557 509.443 149.287 531.731 144.241 552.785C140.769 568.272 130.055 582.107 114.294 591.457C64.9306 614.625 40.7974 647.043 41.675 692.322C40.9349 713.107 48.0542 733.584 62.0946 751.055C76.135 768.526 96.4377 782.171 120.327 790.192C199.308 819.438 280.264 816.619 359.355 789.663C377.467 782.764 393.123 772.312 404.878 759.272C438.336 722.978 415.08 684.922 358.916 681.839C341.145 680.87 323.155 681.839 305.165 681.839C287.284 639.026 305.165 614.096 358.806 610.22C403.782 606.873 450.622 602.292 494.391 608.635C584.341 621.584 624.271 681.399 583.025 747.291C560.001 785.215 524.781 817.513 481.008 840.845C351.786 904.271 211.155 911.318 70.6347 865.51C-46.9594 827.19 -102.246 750.462 -87.876 657.614C-74.2737 568.729 14.6898 500.722 145.557 484.337Z" fill="white" fill-opacity="0.26"/>
<path d="M740.768 325.067C749.653 252.832 758.868 178.131 768.411 100.346H1269.72L1274 110.388C1243.61 121.399 1214.54 135.935 1182.84 142.894C928.129 198.568 928.019 198.127 740.768 325.067Z" fill="white" fill-opacity="0.26"/>
<path d="M-7.24944 864.629C10.7306 873.372 29.2975 881.313 48.3664 888.414C78.5328 897.928 91.5867 911.406 92.2448 940.124C92.2002 960.212 99.8197 979.829 114.078 996.335C128.336 1012.84 148.548 1025.44 171.994 1032.44C225.306 1050.06 282.787 1059.31 338.403 1072.09C382.281 1082.13 427.037 1088.73 467.844 1103.45C489.783 1111.29 504.153 1132.96 516.11 1154.36C437.129 1112.52 348.934 1124.94 266.332 1113.4C194.372 1103.27 119.23 1087.94 56.4839 1059.4C-31.1632 1019.76 -51.1278 941.269 -7.24944 864.629Z" fill="white" fill-opacity="0.26"/>
<path d="M266.332 916.956V1036.5C175.175 1030.95 167.606 1020.9 182.086 916.956H266.332Z" fill="white" fill-opacity="0.26"/>
<path d="M153.784 676.641C142.815 711.438 135.684 736.808 126.58 767.376C57.91 722.802 62.2978 707.121 153.784 676.641Z" fill="white" fill-opacity="0.26"/>
</g>
<g filter="url(#filter1_d_2_6)">
<rect x="766" y="762" width="291" height="81" rx="10" fill="#87BFF4"/>
</g>
<path d="M791.67 810.24H798.72V813H788.25V792.15H791.67V810.24ZM808.75 813.27C807.19 813.27 805.78 812.92 804.52 812.22C803.26 811.5 802.27 810.5 801.55 809.22C800.83 807.92 800.47 806.42 800.47 804.72C800.47 803.04 800.84 801.55 801.58 800.25C802.32 798.95 803.33 797.95 804.61 797.25C805.89 796.55 807.32 796.2 808.9 796.2C810.48 796.2 811.91 796.55 813.19 797.25C814.47 797.95 815.48 798.95 816.22 800.25C816.96 801.55 817.33 803.04 817.33 804.72C817.33 806.4 816.95 807.89 816.19 809.19C815.43 810.49 814.39 811.5 813.07 812.22C811.77 812.92 810.33 813.27 808.75 813.27ZM808.75 810.3C809.63 810.3 810.45 810.09 811.21 809.67C811.99 809.25 812.62 808.62 813.1 807.78C813.58 806.94 813.82 805.92 813.82 804.72C813.82 803.52 813.59 802.51 813.13 801.69C812.67 800.85 812.06 800.22 811.3 799.8C810.54 799.38 809.72 799.17 808.84 799.17C807.96 799.17 807.14 799.38 806.38 799.8C805.64 800.22 805.05 800.85 804.61 801.69C804.17 802.51 803.95 803.52 803.95 804.72C803.95 806.5 804.4 807.88 805.3 808.86C806.22 809.82 807.37 810.3 808.75 810.3ZM827.371 796.2C828.651 796.2 829.781 796.46 830.761 796.98C831.761 797.48 832.541 798.11 833.101 798.87V796.47H836.551V813.27C836.551 814.79 836.231 816.14 835.591 817.32C834.951 818.52 834.021 819.46 832.801 820.14C831.601 820.82 830.161 821.16 828.481 821.16C826.241 821.16 824.381 820.63 822.901 819.57C821.421 818.53 820.581 817.11 820.381 815.31H823.771C824.031 816.17 824.581 816.86 825.421 817.38C826.281 817.92 827.301 818.19 828.481 818.19C829.861 818.19 830.971 817.77 831.811 816.93C832.671 816.09 833.101 814.87 833.101 813.27V810.51C832.521 811.29 831.731 811.95 830.731 812.49C829.751 813.01 828.631 813.27 827.371 813.27C825.931 813.27 824.611 812.91 823.411 812.19C822.231 811.45 821.291 810.43 820.591 809.13C819.911 807.81 819.571 806.32 819.571 804.66C819.571 803 819.911 801.53 820.591 800.25C821.291 798.97 822.231 797.98 823.411 797.28C824.611 796.56 825.931 796.2 827.371 796.2ZM833.101 804.72C833.101 803.58 832.861 802.59 832.381 801.75C831.921 800.91 831.311 800.27 830.551 799.83C829.791 799.39 828.971 799.17 828.091 799.17C827.211 799.17 826.391 799.39 825.631 799.83C824.871 800.25 824.251 800.88 823.771 801.72C823.311 802.54 823.081 803.52 823.081 804.66C823.081 805.8 823.311 806.8 823.771 807.66C824.251 808.52 824.871 809.18 825.631 809.64C826.411 810.08 827.231 810.3 828.091 810.3C828.971 810.3 829.791 810.08 830.551 809.64C831.311 809.2 831.921 808.56 832.381 807.72C832.861 806.86 833.101 805.86 833.101 804.72ZM842.783 794.28C842.163 794.28 841.643 794.07 841.223 793.65C840.803 793.23 840.593 792.71 840.593 792.09C840.593 791.47 840.803 790.95 841.223 790.53C841.643 790.11 842.163 789.9 842.783 789.9C843.383 789.9 843.893 790.11 844.313 790.53C844.733 790.95 844.943 791.47 844.943 792.09C844.943 792.71 844.733 793.23 844.313 793.65C843.893 794.07 843.383 794.28 842.783 794.28ZM844.463 796.47V813H841.043V796.47H844.463ZM857.293 796.2C858.593 796.2 859.753 796.47 860.773 797.01C861.813 797.55 862.623 798.35 863.203 799.41C863.783 800.47 864.073 801.75 864.073 803.25V813H860.683V803.76C860.683 802.28 860.313 801.15 859.573 800.37C858.833 799.57 857.823 799.17 856.543 799.17C855.263 799.17 854.243 799.57 853.483 800.37C852.743 801.15 852.373 802.28 852.373 803.76V813H848.953V796.47H852.373V798.36C852.933 797.68 853.643 797.15 854.503 796.77C855.383 796.39 856.313 796.2 857.293 796.2Z" fill="white"/>
<path d="M1017.34 794.94H1020.01L1027.54 801.9L1020.01 808.86H1017.34L1024.9 801.9L1017.34 794.94Z" fill="white"/>
<g filter="url(#filter2_d_2_6)">
<rect x="65" y="911" width="61" height="61" rx="10" fill="#373737"/>
</g>
<path d="M95.5 961.25C105.855 961.25 114.25 952.855 114.25 942.5C114.25 932.145 105.855 923.75 95.5 923.75C85.1447 923.75 76.75 932.145 76.75 942.5C76.75 952.855 85.1447 961.25 95.5 961.25ZM95.5 958.437V926.562C104.302 926.562 111.437 933.698 111.437 942.5C111.437 951.302 104.302 958.437 95.5 958.437Z" fill="#FBFBFB"/>
<path d="M737.291 330V285.328H747.467L761.675 318.544L775.883 285.328H785.995V330H777.035V300.944L765.067 330H758.283L746.251 300.944V330H737.291ZM809.958 319.312L819.238 294.544H828.774L806.822 346.768H797.286L804.966 329.104L790.758 294.544H800.806L809.958 319.312ZM842.564 305.616H849.668C854.724 305.616 856.964 303.12 856.964 299.152C856.964 295.056 854.724 292.624 849.668 292.624H842.564V305.616ZM866.18 299.152C866.18 305.936 861.572 312.848 850.052 312.848H842.564V330H833.604V285.328H850.052C860.804 285.328 866.18 291.408 866.18 299.152ZM872.541 330V282.64H881.501V298.96C883.805 295.952 887.773 294.032 892.509 294.032C900.509 294.032 906.333 299.408 906.333 309.2V330H897.373V310.416C897.373 304.72 894.237 301.648 889.501 301.648C884.637 301.648 881.501 304.72 881.501 310.416V330H872.541ZM912.549 312.144C912.549 301.072 919.718 293.968 928.742 293.968C934.438 293.968 938.342 296.656 940.454 299.6V294.544H949.478V330H940.454V324.816C938.342 327.888 934.31 330.576 928.678 330.576C919.718 330.576 912.549 323.216 912.549 312.144ZM940.454 312.272C940.454 305.552 935.974 301.84 931.046 301.84C926.246 301.84 921.702 305.424 921.702 312.144C921.702 318.864 926.246 322.704 931.046 322.704C935.974 322.704 940.454 318.992 940.454 312.272ZM967.189 312.336V330H958.229V294.544H967.189V300.048C969.429 296.4 973.141 294.032 978.069 294.032V303.44H975.701C970.389 303.44 967.189 305.488 967.189 312.336ZM1033.7 330V310.416C1033.7 304.784 1030.57 301.84 1025.83 301.84C1021.03 301.84 1017.9 304.784 1017.9 310.416V330H1008.94V310.416C1008.94 304.784 1005.8 301.84 1001.06 301.84C996.2 301.84 993.064 304.784 993.064 310.416V330H984.104V294.544H993.064V298.832C995.304 295.888 999.08 294.032 1003.5 294.032C1009 294.032 1013.54 296.4 1015.98 300.816C1018.28 296.784 1022.95 294.032 1028.14 294.032C1036.65 294.032 1042.66 299.408 1042.66 309.2V330H1033.7ZM1048.86 312.144C1048.86 301.072 1056.03 293.968 1065.05 293.968C1070.75 293.968 1074.65 296.656 1076.77 299.6V294.544H1085.79V330H1076.77V324.816C1074.65 327.888 1070.62 330.576 1064.99 330.576C1056.03 330.576 1048.86 323.216 1048.86 312.144ZM1076.77 312.272C1076.77 305.552 1072.29 301.84 1067.36 301.84C1062.56 301.84 1058.01 305.424 1058.01 312.144C1058.01 318.864 1062.56 322.704 1067.36 322.704C1072.29 322.704 1076.77 318.992 1076.77 312.272Z" fill="black"/>
<rect x="852" y="140" width="121" height="121" rx="37" fill="#0EB114"/>
<g clip-path="url(#clip2_2_6)">
<path d="M865 198.938C865.911 198.893 866.713 198.819 867.514 198.819C885.583 198.819 903.652 198.873 921.716 198.754C924.325 198.754 924.977 199.813 925.152 202.035C925.744 209.437 922.578 215.293 916 218.44C914.731 219.041 914.347 219.722 914.362 221.054C914.427 226.423 914.362 231.797 914.362 237.414H910.244V219.767C907.342 219.24 904.633 218.917 902.019 218.246C895.706 216.62 890.338 213.185 885.479 208.975C881.311 205.361 876.77 202.786 871.109 202.308C867.763 202.03 866.539 201.125 865 198.938Z" fill="#F6F6F6"/>
<path d="M916.199 225.27C915.433 220.692 915.468 220.647 919.047 218.479C924.569 215.134 927.133 210.143 927.113 203.765C927.113 200.201 925.575 197.407 922.304 196.01C918.734 194.519 914.965 193.445 911.35 192.033C907.735 190.621 903.752 189.478 900.396 187.45C893.933 183.537 891.095 177.488 892.265 169.936C893.639 161.048 904.897 156.017 912.425 160.939C914.123 162.052 915.468 163.951 916.503 165.761C917.539 167.57 917.618 169.817 919.834 171.015C920.447 171.348 920.72 173.038 920.526 173.973C920.012 176.394 919.311 178.773 918.43 181.087C917.932 182.479 916.628 182.717 915.697 181.514C914.178 179.564 912.805 177.506 911.589 175.355C910.762 173.864 910.932 172.213 912.465 171.134C914.203 169.907 913.904 168.495 913.018 167.028C911.061 163.772 908.039 162.525 904.369 162.783C901.073 163.012 898.28 165.398 897.264 168.863C895.835 173.714 897.125 177.89 900.809 181.256C904.08 184.268 908.069 185.799 912.361 186.689C915.687 187.38 919.047 187.962 922.319 188.906C935.672 192.779 939.571 205.311 930.962 216.372C927.656 220.607 922.179 223.938 916.199 225.27Z" fill="#F6F6F6"/>
<path d="M908.781 220.642C908.781 222.059 908.95 223.316 908.721 224.504C908.563 225.378 908.077 226.159 907.362 226.687C905.121 227.994 904.026 229.823 904.066 232.379C904.032 233.552 904.355 234.707 904.992 235.693C905.63 236.679 906.551 237.449 907.635 237.902C911.22 239.552 914.895 239.393 918.485 237.872C919.307 237.482 920.018 236.893 920.551 236.157C922.07 234.109 921.014 231.961 918.465 231.787C917.658 231.732 916.842 231.787 916.025 231.787C915.214 229.371 916.025 227.964 918.46 227.746C920.501 227.557 922.627 227.298 924.614 227.656C928.697 228.387 930.509 231.762 928.637 235.481C927.592 237.621 925.993 239.443 924.007 240.76C918.141 244.339 911.758 244.737 905.38 242.152C900.042 239.989 897.533 235.66 898.185 230.42C898.803 225.404 902.841 221.566 908.781 220.642Z" fill="#F6F6F6"/>
<path d="M888.87 269.329C890.996 268.891 893.132 268.509 895.243 268.012C896.985 267.604 898.698 267.082 900.411 266.57C901.75 266.172 903.04 265.541 904.394 265.317C909.229 264.532 910.15 263.567 910.24 258.77C910.24 258.363 910.279 257.96 910.314 257.229L914.243 257.756C914.297 258.571 914.357 259.247 914.377 259.874C914.487 263.011 915.841 264.472 918.858 265.173C921.079 265.67 923.2 266.615 925.396 267.236C926.735 267.614 928.134 267.758 929.503 268.026C931.55 268.434 933.596 268.857 935.643 269.274L935.528 270H889.039L888.87 269.329Z" fill="#F6F6F6"/>
<path d="M935.797 211.654C936.2 207.578 936.618 203.362 937.052 198.973H959.806L960 199.539C958.621 200.161 957.301 200.981 955.862 201.374C944.301 204.516 944.296 204.491 935.797 211.654Z" fill="#F6F6F6"/>
<path d="M901.845 242.102C902.661 242.596 903.504 243.044 904.369 243.444C905.738 243.981 906.331 244.742 906.361 246.362C906.359 247.496 906.705 248.603 907.352 249.534C907.999 250.466 908.916 251.177 909.981 251.572C912.4 252.566 915.009 253.088 917.534 253.809C919.525 254.376 921.557 254.749 923.409 255.579C924.405 256.021 925.057 257.244 925.6 258.452C922.015 256.091 918.012 256.792 914.263 256.141C910.996 255.569 907.586 254.704 904.738 253.093C900.759 250.856 899.853 246.427 901.845 242.102Z" fill="#F6F6F6"/>
<path d="M914.263 245.055V251.801C910.125 251.488 909.781 250.921 910.439 245.055H914.263Z" fill="#F6F6F6"/>
<path d="M909.154 231.494C908.656 233.457 908.333 234.889 907.919 236.614C904.802 234.099 905.002 233.214 909.154 231.494Z" fill="#F6F6F6"/>
</g>
<g filter="url(#filter3_d_2_6)">
<rect x="457" y="400" width="908" height="114" rx="29" fill="white"/>
</g>
<g filter="url(#filter4_d_2_6)">
<rect x="457" y="581" width="908" height="114" rx="29" fill="white"/>
</g>
<path d="M505.245 459.68V445.632H507.485V459.712C507.485 464.352 509.917 466.24 513.405 466.24C516.893 466.24 519.261 464.352 519.261 459.712V445.632H521.501V459.68C521.501 465.6 517.917 468.224 513.373 468.224C508.829 468.224 505.245 465.6 505.245 459.68ZM538.594 463.36C538.594 466.176 536.13 468.256 532.514 468.256C528.546 468.256 525.762 466.272 525.474 463.072H527.778C527.97 464.992 529.634 466.368 532.482 466.368C534.978 466.368 536.386 465.024 536.386 463.36C536.386 459.04 525.89 461.568 525.89 455.008C525.89 452.416 528.354 450.272 532.034 450.272C535.778 450.272 538.242 452.256 538.434 455.616H536.194C536.066 453.664 534.626 452.192 531.97 452.192C529.634 452.192 528.161 453.44 528.161 454.976C528.161 459.712 538.498 457.184 538.594 463.36ZM550.266 452.192C547.098 452.192 544.314 454.24 544.058 458.304H556.346C556.442 454.24 553.498 452.192 550.266 452.192ZM558.362 462.464C557.562 465.76 554.746 468.256 550.362 468.256C545.402 468.256 541.786 464.8 541.786 459.264C541.786 453.696 545.338 450.272 550.362 450.272C555.482 450.272 558.618 453.92 558.618 458.368C558.618 459.072 558.618 459.52 558.554 460.128H544.058C544.25 464.224 547.098 466.368 550.362 466.368C553.338 466.368 555.354 464.8 555.994 462.464H558.362ZM564.956 458.24V468H562.716V450.528H564.956V453.632C565.916 451.488 567.932 450.208 570.94 450.208V452.544H570.332C567.42 452.544 564.956 453.856 564.956 458.24ZM587.398 468V458.016C587.398 454.144 585.286 452.16 582.086 452.16C578.822 452.16 576.55 454.208 576.55 458.464V468H574.31V450.528H576.55V453.504C577.67 451.328 579.91 450.208 582.502 450.208C586.47 450.208 589.606 452.64 589.606 457.76V468H587.398ZM593.536 459.232C593.536 453.76 597.088 450.272 601.888 450.272C605.408 450.272 607.808 452.16 608.8 454.368V450.528H611.04V468H608.8V464.128C607.776 466.368 605.344 468.256 601.856 468.256C597.088 468.256 593.536 464.704 593.536 459.232ZM608.8 459.264C608.8 454.912 605.888 452.224 602.304 452.224C598.624 452.224 595.808 454.784 595.808 459.232C595.808 463.648 598.624 466.304 602.304 466.304C605.888 466.304 608.8 463.616 608.8 459.264ZM641.69 468V458.016C641.69 454.144 639.674 452.16 636.57 452.16C633.402 452.16 631.162 454.272 631.162 458.528V468H628.954V458.016C628.954 454.144 626.906 452.16 623.802 452.16C620.602 452.16 618.394 454.272 618.394 458.528V468H616.154V450.528H618.394V453.536C619.514 451.328 621.722 450.208 624.186 450.208C627.098 450.208 629.594 451.584 630.65 454.496C631.61 451.648 634.17 450.208 636.954 450.208C640.826 450.208 643.898 452.64 643.898 457.76V468H641.69ZM656.329 452.192C653.161 452.192 650.377 454.24 650.121 458.304H662.409C662.505 454.24 659.561 452.192 656.329 452.192ZM664.425 462.464C663.625 465.76 660.809 468.256 656.425 468.256C651.465 468.256 647.849 464.8 647.849 459.264C647.849 453.696 651.401 450.272 656.425 450.272C661.545 450.272 664.681 453.92 664.681 458.368C664.681 459.072 664.681 459.52 664.617 460.128H650.121C650.312 464.224 653.161 466.368 656.425 466.368C659.401 466.368 661.417 464.8 662.057 462.464H664.425Z" fill="#CECECE"/>
<path d="M502.253 637.544H506.765C510.541 637.544 512.013 635.816 512.013 633.064C512.013 630.184 510.541 628.52 506.765 628.52H502.253V637.544ZM514.317 633.064C514.317 636.68 512.013 639.464 506.765 639.464H502.253V649H500.013V626.632H506.765C511.949 626.632 514.317 629.384 514.317 633.064ZM517.052 640.232C517.052 634.76 520.604 631.272 525.404 631.272C528.924 631.272 531.324 633.16 532.316 635.368V631.528H534.556V649H532.316V645.128C531.292 647.368 528.86 649.256 525.372 649.256C520.604 649.256 517.052 645.704 517.052 640.232ZM532.316 640.264C532.316 635.912 529.404 633.224 525.82 633.224C522.14 633.224 519.324 635.784 519.324 640.232C519.324 644.648 522.14 647.304 525.82 647.304C529.404 647.304 532.316 644.616 532.316 640.264ZM551.765 644.36C551.765 647.176 549.301 649.256 545.685 649.256C541.717 649.256 538.933 647.272 538.645 644.072H540.949C541.141 645.992 542.805 647.368 545.653 647.368C548.149 647.368 549.557 646.024 549.557 644.36C549.557 640.04 539.061 642.568 539.061 636.008C539.061 633.416 541.525 631.272 545.205 631.272C548.949 631.272 551.413 633.256 551.605 636.616H549.365C549.237 634.664 547.797 633.192 545.141 633.192C542.805 633.192 541.333 634.44 541.333 635.976C541.333 640.712 551.669 638.184 551.765 644.36ZM568.078 644.36C568.078 647.176 565.614 649.256 561.998 649.256C558.03 649.256 555.246 647.272 554.958 644.072H557.262C557.454 645.992 559.118 647.368 561.966 647.368C564.462 647.368 565.87 646.024 565.87 644.36C565.87 640.04 555.374 642.568 555.374 636.008C555.374 633.416 557.838 631.272 561.518 631.272C565.262 631.272 567.726 633.256 567.918 636.616H565.678C565.55 634.664 564.11 633.192 561.454 633.192C559.118 633.192 557.646 634.44 557.646 635.976C557.646 640.712 567.982 638.184 568.078 644.36ZM575.686 649L570.214 631.528H572.486L576.838 646.728L581.734 631.528H583.974L588.806 646.76L593.126 631.528H595.334L589.862 649H587.622L582.79 634.344L577.958 649H575.686ZM614.836 640.264C614.836 645.8 610.964 649.256 606.036 649.256C601.108 649.256 597.364 645.8 597.364 640.264C597.364 634.696 601.204 631.272 606.1 631.272C611.028 631.272 614.836 634.696 614.836 640.264ZM599.636 640.264C599.636 645.064 602.708 647.304 606.036 647.304C609.332 647.304 612.532 645.064 612.532 640.264C612.532 635.464 609.396 633.224 606.068 633.224C602.74 633.224 599.636 635.464 599.636 640.264ZM621.159 639.24V649H618.919V631.528H621.159V634.632C622.119 632.488 624.135 631.208 627.143 631.208V633.544H626.535C623.623 633.544 621.159 634.856 621.159 639.24ZM629.489 640.232C629.489 634.76 633.041 631.272 637.873 631.272C641.009 631.272 643.633 633 644.753 635.304V625.32H646.993V649H644.753V645.096C643.729 647.4 641.297 649.256 637.841 649.256C633.041 649.256 629.489 645.704 629.489 640.232ZM644.753 640.264C644.753 635.912 641.841 633.224 638.257 633.224C634.577 633.224 631.761 635.784 631.761 640.232C631.761 644.648 634.577 647.304 638.257 647.304C641.841 647.304 644.753 644.616 644.753 640.264Z" fill="#CECECE"/>
</g>
<defs>
<filter id="filter0_i_2_6" x="-819" y="-608" width="2093" height="1971" filterUnits="userSpaceOnUse" color-interpolation-filters="sRGB">
<feFlood flood-opacity="0" result="BackgroundImageFix"/>
<feBlend mode="normal" in="SourceGraphic" in2="BackgroundImageFix" result="shape"/>
<feColorMatrix in="SourceAlpha" type="matrix" values="0 0 0 0 0 0 0 0 0 0 0 0 0 0 0 0 0 0 127 0" result="hardAlpha"/>
<feOffset dy="4"/>
<feGaussianBlur stdDeviation="5.25"/>
<feComposite in2="hardAlpha" operator="arithmetic" k2="-1" k3="1"/>
<feColorMatrix type="matrix" values="0 0 0 0 0 0 0 0 0 0 0 0 0 0 0 0 0 0 0.05 0"/>
<feBlend mode="normal" in2="shape" result="effect1_innerShadow_2_6"/>
</filter>
<filter id="filter1_d_2_6" x="762.7" y="762" width="297.6" height="88.3" filterUnits="userSpaceOnUse" color-interpolation-filters="sRGB">
<feFlood flood-opacity="0" result="BackgroundImageFix"/>
<feColorMatrix in="SourceAlpha" type="matrix" values="0 0 0 0 0 0 0 0 0 0 0 0 0 0 0 0 0 0 127 0" result="hardAlpha"/>
<feMorphology radius="1" operator="erode" in="SourceAlpha" result="effect1_dropShadow_2_6"/>
<feOffset dy="4"/>
<feGaussianBlur stdDeviation="2.15"/>
<feComposite in2="hardAlpha" operator="out"/>
<feColorMatrix type="matrix" values="0 0 0 0 0 0 0 0 0 0 0 0 0 0 0 0 0 0 0.04 0"/>
<feBlend mode="normal" in2="BackgroundImageFix" result="effect1_dropShadow_2_6"/>
<feBlend mode="normal" in="SourceGraphic" in2="effect1_dropShadow_2_6" result="shape"/>
</filter>
<filter id="filter2_d_2_6" x="61" y="911" width="69" height="69" filterUnits="userSpaceOnUse" color-interpolation-filters="sRGB">
<feFlood flood-opacity="0" result="BackgroundImageFix"/>
<feColorMatrix in="SourceAlpha" type="matrix" values="0 0 0 0 0 0 0 0 0 0 0 0 0 0 0 0 0 0 127 0" result="hardAlpha"/>
<feOffset dy="4"/>
<feGaussianBlur stdDeviation="2"/>
<feComposite in2="hardAlpha" operator="out"/>
<feColorMatrix type="matrix" values="0 0 0 0 0 0 0 0 0 0 0 0 0 0 0 0 0 0 0.25 0"/>
<feBlend mode="normal" in2="BackgroundImageFix" result="effect1_dropShadow_2_6"/>
<feBlend mode="normal" in="SourceGraphic" in2="effect1_dropShadow_2_6" result="shape"/>
</filter>
<filter id="filter3_d_2_6" x="452.8" y="399.8" width="916.4" height="122.4" filterUnits="userSpaceOnUse" color-interpolation-filters="sRGB">
<feFlood flood-opacity="0" result="BackgroundImageFix"/>
<feColorMatrix in="SourceAlpha" type="matrix" values="0 0 0 0 0 0 0 0 0 0 0 0 0 0 0 0 0 0 127 0" result="hardAlpha"/>
<feMorphology radius="1" operator="erode" in="SourceAlpha" result="effect1_dropShadow_2_6"/>
<feOffset dy="4"/>
<feGaussianBlur stdDeviation="2.6"/>
<feComposite in2="hardAlpha" operator="out"/>
<feColorMatrix type="matrix" values="0 0 0 0 0 0 0 0 0 0 0 0 0 0 0 0 0 0 0.13 0"/>
<feBlend mode="normal" in2="BackgroundImageFix" result="effect1_dropShadow_2_6"/>
<feBlend mode="normal" in="SourceGraphic" in2="effect1_dropShadow_2_6" result="shape"/>
</filter>
<filter id="filter4_d_2_6" x="452.8" y="580.8" width="916.4" height="122.4" filterUnits="userSpaceOnUse" color-interpolation-filters="sRGB">
<feFlood flood-opacity="0" result="BackgroundImageFix"/>
<feColorMatrix in="SourceAlpha" type="matrix" values="0 0 0 0 0 0 0 0 0 0 0 0 0 0 0 0 0 0 127 0" result="hardAlpha"/>
<feMorphology radius="1" operator="erode" in="SourceAlpha" result="effect1_dropShadow_2_6"/>
<feOffset dy="4"/>
<feGaussianBlur stdDeviation="2.6"/>
<feComposite in2="hardAlpha" operator="out"/>
<feColorMatrix type="matrix" values="0 0 0 0 0 0 0 0 0 0 0 0 0 0 0 0 0 0 0.13 0"/>
<feBlend mode="normal" in2="BackgroundImageFix" result="effect1_dropShadow_2_6"/>
<feBlend mode="normal" in="SourceGraphic" in2="effect1_dropShadow_2_6" result="shape"/>
</filter>
<clipPath id="clip0_2_6">
<rect width="1822" height="1025" fill="white"/>
</clipPath>
<clipPath id="clip1_2_6">
<rect width="2093" height="1967" fill="white" transform="translate(-819 -608)"/>
</clipPath>
<clipPath id="clip2_2_6">
<rect width="95" height="111" fill="white" transform="translate(865 159)"/>
</clipPath>
</defs>
</svg>
